<svg viewBox="0 0 639 114.54545593261719" width="639" height="114.54545593261719"  fill="none" xmlns="http://www.w3.org/2000/svg">
<g filter="url(#filter0_d_1_178)">
<g clip-path="url(#clip0_1_178)" filter="url(#filter1_i_1_178)">
<path fill-rule="evenodd" clip-rule="evenodd" d="M59.3201 2C27.6236 2 2 27.8125 2 59.746C2 85.2722 18.4179 106.88 41.1939 114.527C44.0415 115.102 45.0845 113.285 45.0845 111.756C45.0845 110.417 44.9907 105.828 44.9907 101.047C29.0456 104.49 25.7252 94.1634 25.7252 94.1634C23.1627 87.471 19.3659 85.7509 19.3659 85.7509C14.1471 82.2134 19.7461 82.2134 19.7461 82.2134C25.5351 82.5959 28.5728 88.1409 28.5728 88.1409C33.6965 96.9359 41.953 94.4509 45.2746 92.9209C45.7486 89.1922 47.268 86.6109 48.8813 85.1772C36.164 83.8384 22.7837 78.8672 22.7837 56.6861C22.7837 50.3761 25.0599 45.2136 28.6666 41.1986C28.0976 39.7648 26.1042 33.8362 29.2369 25.9012C29.2369 25.9012 34.0767 24.3712 44.9895 31.8287C49.6617 30.5646 54.48 29.9216 59.3201 29.9162C64.16 29.9162 69.0937 30.5861 73.6496 31.8287C84.5635 24.3712 89.4034 25.9012 89.4034 25.9012C92.5361 33.8362 90.5415 39.7648 89.9724 41.1986C93.6742 45.2136 95.8565 50.3761 95.8565 56.6861C95.8565 78.8672 82.4763 83.7422 69.6639 85.1772C71.7523 86.9934 73.5545 90.4347 73.5545 95.8847C73.5545 103.628 73.4607 109.843 73.4607 111.755C73.4607 113.285 74.5049 115.102 77.3513 114.528C100.127 106.878 116.545 85.2722 116.545 59.746C116.639 27.8125 90.9216 2 59.3201 2Z" fill="#212121"/>
</g>
<g clip-path="url(#clip1_1_178)" filter="url(#filter2_i_1_178)">
<path d="M281.575 2H183.941C181.698 2 179.547 2.89087 177.961 4.47661C176.376 6.06236 175.485 8.2131 175.485 10.4557V108.09C175.485 110.332 176.376 112.483 177.961 114.069C179.547 115.655 181.698 116.545 183.941 116.545H281.575C283.817 116.545 285.968 115.655 287.554 114.069C289.139 112.483 290.03 110.332 290.03 108.09V10.4557C290.03 8.2131 289.139 6.06236 287.554 4.47661C285.968 2.89087 283.817 2 281.575 2ZM209.626 99.5784H192.404V44.875H209.626V99.5784ZM201.003 37.2943C199.05 37.2833 197.143 36.6939 195.524 35.6004C193.905 34.507 192.647 32.9584 191.907 31.1503C191.168 29.3422 190.98 27.3556 191.369 25.441C191.757 23.5265 192.704 21.77 194.09 20.393C195.475 19.0161 197.238 18.0806 199.155 17.7045C201.072 17.3284 203.057 17.5285 204.861 18.2797C206.664 19.0309 208.204 20.2994 209.288 21.9252C210.371 23.551 210.948 25.4613 210.946 27.4148C210.965 28.7227 210.72 30.0209 210.226 31.232C209.732 32.4432 208.999 33.5425 208.071 34.4644C207.143 35.3863 206.039 36.112 204.825 36.5982C203.611 37.0844 202.311 37.3211 201.003 37.2943ZM273.103 99.6261H255.889V69.7409C255.889 60.9273 252.143 58.2068 247.306 58.2068C242.2 58.2068 237.188 62.0568 237.188 69.9636V99.6261H219.967V44.9148H236.528V52.4955H236.751C238.413 49.1307 244.236 43.3796 253.121 43.3796C262.73 43.3796 273.111 49.083 273.111 65.7875L273.103 99.6261Z" fill="#212121"/>
</g>
<g clip-path="url(#clip2_1_178)" filter="url(#filter3_i_1_178)">
<path d="M406.242 116.545C437.873 116.545 463.515 90.9036 463.515 59.2727C463.515 27.6419 437.873 2 406.242 2C374.612 2 348.97 27.6419 348.97 59.2727C348.97 90.9036 374.612 116.545 406.242 116.545Z" fill="#212121"/>
<path fill-rule="evenodd" clip-rule="evenodd" d="M374.895 58.6681C391.591 51.3939 402.724 46.5983 408.295 44.2813C424.2 37.6657 427.505 36.5165 429.659 36.4786C430.133 36.4702 431.192 36.5877 431.878 37.1445C432.458 37.6146 432.617 38.2497 432.694 38.6955C432.77 39.1412 432.865 40.1567 432.789 40.9501C431.927 50.0063 428.198 71.9832 426.301 82.1262C425.498 86.4181 423.917 87.8572 422.387 87.998C419.061 88.3041 416.535 85.8 413.314 83.6884C408.273 80.3841 405.425 78.3272 400.532 75.1029C394.878 71.3766 398.543 69.3285 401.766 65.9814C402.609 65.1055 417.263 51.7764 417.547 50.5673C417.583 50.4161 417.615 49.8524 417.281 49.5547C416.946 49.2571 416.451 49.3589 416.095 49.4398C415.589 49.5546 407.537 54.8771 391.937 65.4073C389.651 66.9769 387.581 67.7416 385.726 67.7015C383.681 67.6573 379.747 66.5453 376.823 65.5947C373.236 64.4288 370.386 63.8124 370.634 61.8324C370.763 60.801 372.183 59.7463 374.895 58.6681Z" fill="white"/>
</g>
<g clip-path="url(#clip3_1_178)" filter="url(#filter4_i_1_178)">
<path d="M619.422 21.8335C612.121 18.4836 604.292 16.0156 596.107 14.602C595.958 14.5747 595.809 14.6429 595.732 14.7793C594.725 16.5701 593.61 18.9063 592.829 20.7426C584.025 19.4245 575.266 19.4245 566.642 20.7426C565.861 18.8655 564.705 16.5701 563.694 14.7793C563.617 14.6475 563.468 14.5793 563.319 14.602C555.138 16.0111 547.309 18.4791 540.004 21.8335C539.94 21.8608 539.886 21.9063 539.85 21.9653C525 44.1507 520.932 65.7907 522.928 87.1625C522.937 87.2671 522.996 87.3671 523.077 87.4306C532.874 94.6257 542.365 98.9938 551.679 101.889C551.828 101.935 551.986 101.88 552.081 101.757C554.285 98.7484 556.249 95.5758 557.933 92.2395C558.032 92.0441 557.937 91.8123 557.734 91.735C554.619 90.5532 551.652 89.1124 548.799 87.4761C548.573 87.3443 548.555 87.0215 548.763 86.867C549.363 86.417 549.964 85.9488 550.537 85.4761C550.641 85.3898 550.785 85.3716 550.907 85.4261C569.653 93.9849 589.948 93.9849 608.473 85.4261C608.595 85.3671 608.74 85.3853 608.848 85.4716C609.422 85.9443 610.022 86.417 610.627 86.867C610.835 87.0215 610.821 87.3443 610.595 87.4761C607.742 89.1441 604.775 90.5532 601.656 91.7305C601.453 91.8077 601.362 92.0441 601.462 92.2395C603.182 95.5711 605.146 98.7437 607.308 101.753C607.399 101.88 607.561 101.935 607.71 101.889C617.07 98.9938 626.56 94.6257 636.358 87.4306C636.444 87.3671 636.498 87.2716 636.507 87.167C638.895 62.4589 632.506 40.9963 619.571 21.9698C619.539 21.9063 619.485 21.8608 619.422 21.8335ZM560.732 74.1493C555.088 74.1493 550.438 68.9678 550.438 62.6044C550.438 56.241 554.998 51.0596 560.732 51.0596C566.511 51.0596 571.116 56.2865 571.026 62.6044C571.026 68.9678 566.466 74.1493 560.732 74.1493ZM598.793 74.1493C593.149 74.1493 588.499 68.9678 588.499 62.6044C588.499 56.241 593.059 51.0596 598.793 51.0596C604.572 51.0596 609.178 56.2865 609.087 62.6044C609.087 68.9678 604.572 74.1493 598.793 74.1493Z" fill="#212121"/>
</g>
</g>
<defs>
<filter id="filter0_d_1_178" x="-2" y="0" width="643" height="118.545" filterUnits="userSpaceOnUse" color-interpolation-filters="sRGB">
<feFlood flood-opacity="0" result="BackgroundImageFix"/>
<feColorMatrix in="SourceAlpha" type="matrix" values="0 0 0 0 0 0 0 0 0 0 0 0 0 0 0 0 0 0 127 0" result="hardAlpha"/>
<feOffset/>
<feGaussianBlur stdDeviation="1"/>
<feComposite in2="hardAlpha" operator="out"/>
<feColorMatrix type="matrix" values="0 0 0 0 0 0 0 0 0 0 0 0 0 0 0 0 0 0 0.31 0"/>
<feBlend mode="normal" in2="BackgroundImageFix" result="effect1_dropShadow_1_178"/>
<feBlend mode="normal" in="SourceGraphic" in2="effect1_dropShadow_1_178" result="shape"/>
</filter>
<filter id="filter1_i_1_178" x="2" y="2" width="114.545" height="118.545" filterUnits="userSpaceOnUse" color-interpolation-filters="sRGB">
<feFlood flood-opacity="0" result="BackgroundImageFix"/>
<feBlend mode="normal" in="SourceGraphic" in2="BackgroundImageFix" result="shape"/>
<feColorMatrix in="SourceAlpha" type="matrix" values="0 0 0 0 0 0 0 0 0 0 0 0 0 0 0 0 0 0 127 0" result="hardAlpha"/>
<feOffset dy="4"/>
<feGaussianBlur stdDeviation="2"/>
<feComposite in2="hardAlpha" operator="arithmetic" k2="-1" k3="1"/>
<feColorMatrix type="matrix" values="0 0 0 0 0 0 0 0 0 0 0 0 0 0 0 0 0 0 0.25 0"/>
<feBlend mode="normal" in2="shape" result="effect1_innerShadow_1_178"/>
</filter>
<filter id="filter2_i_1_178" x="175.485" y="2" width="114.545" height="118.545" filterUnits="userSpaceOnUse" color-interpolation-filters="sRGB">
<feFlood flood-opacity="0" result="BackgroundImageFix"/>
<feBlend mode="normal" in="SourceGraphic" in2="BackgroundImageFix" result="shape"/>
<feColorMatrix in="SourceAlpha" type="matrix" values="0 0 0 0 0 0 0 0 0 0 0 0 0 0 0 0 0 0 127 0" result="hardAlpha"/>
<feOffset dy="4"/>
<feGaussianBlur stdDeviation="2"/>
<feComposite in2="hardAlpha" operator="arithmetic" k2="-1" k3="1"/>
<feColorMatrix type="matrix" values="0 0 0 0 0 0 0 0 0 0 0 0 0 0 0 0 0 0 0.25 0"/>
<feBlend mode="normal" in2="shape" result="effect1_innerShadow_1_178"/>
</filter>
<filter id="filter3_i_1_178" x="348.97" y="2" width="114.545" height="118.545" filterUnits="userSpaceOnUse" color-interpolation-filters="sRGB">
<feFlood flood-opacity="0" result="BackgroundImageFix"/>
<feBlend mode="normal" in="SourceGraphic" in2="BackgroundImageFix" result="shape"/>
<feColorMatrix in="SourceAlpha" type="matrix" values="0 0 0 0 0 0 0 0 0 0 0 0 0 0 0 0 0 0 127 0" result="hardAlpha"/>
<feOffset dy="4"/>
<feGaussianBlur stdDeviation="2"/>
<feComposite in2="hardAlpha" operator="arithmetic" k2="-1" k3="1"/>
<feColorMatrix type="matrix" values="0 0 0 0 0 0 0 0 0 0 0 0 0 0 0 0 0 0 0.25 0"/>
<feBlend mode="normal" in2="shape" result="effect1_innerShadow_1_178"/>
</filter>
<filter id="filter4_i_1_178" x="522.455" y="2" width="114.545" height="118.545" filterUnits="userSpaceOnUse" color-interpolation-filters="sRGB">
<feFlood flood-opacity="0" result="BackgroundImageFix"/>
<feBlend mode="normal" in="SourceGraphic" in2="BackgroundImageFix" result="shape"/>
<feColorMatrix in="SourceAlpha" type="matrix" values="0 0 0 0 0 0 0 0 0 0 0 0 0 0 0 0 0 0 127 0" result="hardAlpha"/>
<feOffset dy="4"/>
<feGaussianBlur stdDeviation="2"/>
<feComposite in2="hardAlpha" operator="arithmetic" k2="-1" k3="1"/>
<feColorMatrix type="matrix" values="0 0 0 0 0 0 0 0 0 0 0 0 0 0 0 0 0 0 0.25 0"/>
<feBlend mode="normal" in2="shape" result="effect1_innerShadow_1_178"/>
</filter>
<clipPath id="clip0_1_178">
<rect width="114.545" height="114.545" fill="white" transform="translate(2 2)"/>
</clipPath>
<clipPath id="clip1_1_178">
<rect width="114.545" height="114.545" fill="white" transform="translate(175.485 2)"/>
</clipPath>
<clipPath id="clip2_1_178">
<rect width="114.545" height="114.545" fill="white" transform="translate(348.97 2)"/>
</clipPath>
<clipPath id="clip3_1_178">
<rect width="114.545" height="114.545" fill="white" transform="translate(522.455 2)"/>
</clipPath>
</defs>
</svg>